<svg width="114" height="86" viewBox="0 0 114 86" fill="none" xmlns="http://www.w3.org/2000/svg">
<g clip-path="url(#clip0_56_14361)">
<path d="M84.612 28.5409C84.612 36.6004 81.2731 43.8731 75.9065 49.067H36.2358C30.8692 43.8795 27.5303 36.6004 27.5303 28.5409C27.5303 12.7801 40.3039 0 56.0711 0C71.832 0 84.612 12.7801 84.612 28.5409Z" fill="black"/>
<mask id="mask0_56_14361" style="mask-type:luminance" maskUnits="userSpaceOnUse" x="31" y="5" width="50" height="44">
<path d="M80.3966 33.3446L76.8018 43.2143C77.128 42.6962 77.4414 42.1589 77.7292 41.6152L80.0767 35.1612C80.2111 34.5664 80.3198 33.9587 80.3966 33.3446ZM80.5437 31.9758L76.0342 44.3657C76.2964 44.0011 76.5459 43.6237 76.789 43.2399L80.403 33.3191C80.4605 32.8713 80.5117 32.4236 80.5437 31.9758ZM80.6076 30.8245L75.3434 45.2804C75.5736 44.9861 75.7975 44.6855 76.015 44.3785L80.5373 31.9502C80.5757 31.5792 80.5948 31.2018 80.6076 30.8245ZM80.6012 28.9183L74.1153 46.7388C74.3136 46.5213 74.5118 46.2974 74.7037 46.0735L80.6268 29.8074C80.6204 29.5068 80.614 29.2126 80.6012 28.9183ZM80.5501 28.0804L73.5396 47.3464C73.7315 47.1545 73.917 46.9562 74.1025 46.7516L80.6012 28.8991C80.5885 28.6241 80.5693 28.349 80.5501 28.0804ZM80.4797 27.3064L72.9895 47.8901C73.175 47.7174 73.3541 47.5383 73.5332 47.3528L80.5565 28.0676C80.5309 27.8117 80.5053 27.5623 80.4797 27.3064ZM80.3902 26.5836L72.4522 48.3891C72.6313 48.2291 72.804 48.0628 72.9767 47.9029L80.4733 27.3C80.4477 27.057 80.4221 26.8203 80.3902 26.5836ZM80.2878 25.8992L71.9341 48.8432C72.1068 48.6961 72.2731 48.549 72.4458 48.3955L80.3902 26.5708C80.3582 26.347 80.3198 26.1231 80.2878 25.8992ZM80.1663 25.2468L71.5759 48.8624H71.9149L71.9277 48.856L80.2878 25.8928C80.2494 25.6753 80.2111 25.4642 80.1663 25.2468ZM80.0384 24.6327L71.2177 48.8624H71.5631L80.1599 25.2404C80.1279 25.0357 80.0831 24.831 80.0384 24.6327ZM79.904 24.0442L70.8723 48.8624H71.2177L80.0384 24.6263C79.9936 24.428 79.9488 24.2361 79.904 24.0442ZM79.7569 23.475L70.5205 48.8624H70.8659L79.904 24.0314C79.8529 23.8459 79.8017 23.6604 79.7569 23.475ZM79.597 22.9313L70.1623 48.8624H70.5077L79.7505 23.4686C79.7057 23.2895 79.6546 23.1104 79.597 22.9313ZM79.4371 22.4067L69.8105 48.8624H70.1559L79.597 22.9249C79.5458 22.7458 79.4947 22.5795 79.4371 22.4067ZM79.2708 21.9014L69.4587 48.8624H69.8041L79.4371 22.4004C79.3795 22.2276 79.3284 22.0613 79.2708 21.9014ZM79.0917 21.4089L69.1005 48.8624H69.4459L79.2644 21.895C79.2068 21.7287 79.1557 21.5688 79.0917 21.4089ZM78.9126 20.9356L68.7487 48.8624H69.0941L79.0917 21.4025C79.0341 21.2426 78.9766 21.0891 78.9126 20.9356ZM78.7271 20.475L68.3969 48.856H68.7423L78.9062 20.9228C78.8486 20.7757 78.7911 20.6221 78.7271 20.475ZM78.5352 20.0337L68.045 48.8624H68.3905L78.7207 20.4686C78.6631 20.3215 78.5992 20.1744 78.5352 20.0337ZM78.3369 19.5987L67.6869 48.8624H68.0323L78.5288 20.0273C78.4712 19.8802 78.4073 19.7394 78.3369 19.5987ZM78.1386 19.1766L67.335 48.8624H67.6805L78.3305 19.5923C78.2729 19.4516 78.209 19.3109 78.1386 19.1766ZM77.9339 18.7672L66.9832 48.8624H67.3287L78.1322 19.1702C78.0683 19.0358 78.0043 18.9015 77.9339 18.7672ZM77.7292 18.3706L66.6314 48.8624H66.9768L77.9339 18.7608C77.8636 18.6265 77.7996 18.4985 77.7292 18.3706ZM77.5182 17.9804L66.2796 48.8624H66.625L77.7229 18.3642C77.6589 18.2363 77.5885 18.1083 77.5182 17.9804ZM77.3007 17.5966L65.9214 48.856H66.2668L77.5118 17.9676C77.4414 17.8461 77.371 17.7246 77.3007 17.5966ZM77.0832 17.232L65.5696 48.8624H65.915L77.2943 17.5966C77.2239 17.4687 77.1536 17.3472 77.0832 17.232ZM76.8593 16.8674L65.2178 48.856H65.5632L77.0768 17.2192C77.0065 17.1041 76.9361 16.989 76.8593 16.8674ZM76.6355 16.5156L64.866 48.856H65.2114L76.8593 16.861C76.7826 16.7459 76.7122 16.6308 76.6355 16.5156ZM76.4052 16.1702L64.5078 48.856H64.8532L76.6291 16.5092C76.5587 16.4005 76.4819 16.2854 76.4052 16.1702ZM76.1749 15.8376L64.156 48.8624H64.5014L76.3988 16.1702C76.3284 16.0551 76.2517 15.9464 76.1749 15.8376ZM75.9446 15.505L63.8042 48.8624H64.1496L76.1685 15.8312C76.0982 15.7225 76.0214 15.6137 75.9446 15.505ZM75.708 15.1852L63.4524 48.8624H63.7978L75.9383 15.505C75.8615 15.3963 75.7847 15.2875 75.708 15.1852ZM75.4713 14.8718L63.1006 48.8624H63.446L75.7016 15.1788C75.6248 15.0764 75.5481 14.9741 75.4713 14.8718ZM75.2282 14.5647L62.7424 48.8624H63.0878L75.4585 14.8718C75.3882 14.763 75.305 14.6671 75.2282 14.5647ZM74.9852 14.2641L62.3906 48.8624H62.736L75.2218 14.5647C75.1451 14.4624 75.0619 14.36 74.9852 14.2641ZM74.7357 13.9699L62.0388 48.8624H62.3842L74.9788 14.2577C74.902 14.1618 74.8189 14.0658 74.7357 13.9699ZM74.4863 13.682L61.6806 48.8624H62.026L74.7293 13.9699C74.6526 13.8675 74.5694 13.778 74.4863 13.682ZM74.2368 13.4006L61.3288 48.8624H61.6742L74.4799 13.6756C74.4031 13.5861 74.32 13.4901 74.2368 13.4006ZM73.9873 13.1255L60.977 48.8624H61.3224L74.2304 13.3942C74.1536 13.3046 74.0705 13.2151 73.9873 13.1255ZM73.7315 12.8505L60.6252 48.8624H60.9706L73.9809 13.1255C73.8978 13.0296 73.8146 12.94 73.7315 12.8505ZM73.4756 12.5882L60.2734 48.856H60.6188L73.7251 12.8441C73.6419 12.7609 73.5588 12.6778 73.4756 12.5882ZM73.2134 12.3324L59.9216 48.8624H60.267L73.4692 12.5882C73.3861 12.4987 73.2965 12.4155 73.2134 12.3324ZM72.9511 12.0765L59.5634 48.856H59.9088L73.207 12.326C73.1238 12.2428 73.0407 12.1597 72.9511 12.0765ZM72.6889 11.8335L59.2116 48.8624H59.557L72.9447 12.0765C72.8616 11.9934 72.7784 11.9102 72.6889 11.8335ZM72.4266 11.5904L58.8598 48.8624H59.2052L72.6825 11.8271C72.5993 11.7503 72.5098 11.6671 72.4266 11.5904ZM72.158 11.3537L58.508 48.8624H58.8534L72.4202 11.5904C72.3307 11.5072 72.2475 11.4305 72.158 11.3537ZM71.8893 11.1234L58.1562 48.8624H58.5016L72.1516 11.3473C72.0684 11.2706 71.9789 11.1938 71.8893 11.1234ZM71.6207 10.8932L57.8044 48.8624H58.1498L71.8893 11.117C71.7934 11.0403 71.7102 10.9635 71.6207 10.8932ZM71.3456 10.6693L57.4462 48.856H57.7916L71.6143 10.8868C71.5247 10.8164 71.4352 10.7461 71.3456 10.6693ZM71.0706 10.4518L57.0944 48.8624H57.4398L71.3392 10.6693C71.2497 10.5989 71.1601 10.5222 71.0706 10.4518ZM70.7955 10.2407L56.7426 48.8624H57.088L71.0706 10.4518C70.9746 10.3815 70.8851 10.3111 70.7955 10.2407ZM70.5205 10.0361L56.3908 48.8624H56.7362L70.7955 10.2407C70.6996 10.1704 70.61 10.1 70.5205 10.0361ZM70.239 9.83137L56.0326 48.8624H56.378L70.5077 10.0361C70.4245 9.96569 70.3286 9.89533 70.239 9.83137ZM69.9576 9.63308L55.6808 48.8624H56.0262L70.2326 9.83137C70.1431 9.76101 70.0471 9.69704 69.9576 9.63308ZM69.6761 9.44119L55.3289 48.8624H55.6744L69.9512 9.63308C69.8616 9.56911 69.7657 9.50515 69.6761 9.44119ZM69.3883 9.24929L54.9707 48.8624H55.3162L69.6633 9.44119C69.5802 9.37722 69.4842 9.31326 69.3883 9.24929ZM69.1069 9.07019L54.6189 48.8624H54.9643L69.3819 9.24929C69.2924 9.18533 69.1964 9.12776 69.1069 9.07019ZM68.819 8.89109L54.2671 48.8624H54.6125L69.0941 9.07019C69.0045 9.00623 68.9086 8.94866 68.819 8.89109ZM68.5248 8.71199L53.9153 48.8624H54.2607L68.8126 8.8847C68.7167 8.82713 68.6207 8.76956 68.5248 8.71199ZM68.2369 8.53929L53.5635 48.8624H53.9089L68.5248 8.71199C68.4288 8.65442 68.3329 8.59686 68.2369 8.53929ZM67.9427 8.37298L53.2053 48.8624H53.5507L68.2242 8.53929C68.1346 8.48172 68.0387 8.43055 67.9427 8.37298ZM67.6485 8.21307L52.8535 48.8624H53.1989L67.9363 8.37298C67.8404 8.32181 67.7444 8.26424 67.6485 8.21307ZM67.3542 8.05316L52.5017 48.8624H52.8471L67.6421 8.21307C67.5461 8.1555 67.4502 8.10433 67.3542 8.05316ZM67.0536 7.89965L52.1499 48.8624H52.4953L67.3478 8.05316C67.2519 8.00199 67.1559 7.95082 67.0536 7.89965ZM66.7594 7.75253L51.7981 48.8624H52.1435L67.0536 7.89965C66.9513 7.84848 66.8553 7.8037 66.7594 7.75253ZM66.4587 7.60541L51.4399 48.8624H51.7853L66.7466 7.75253C66.657 7.70136 66.5547 7.65658 66.4587 7.60541ZM66.1581 7.46469L51.0881 48.8624H51.4335L66.4459 7.60541C66.35 7.56064 66.2541 7.50946 66.1581 7.46469ZM65.8511 7.33036L50.7363 48.8624H51.0817L66.1517 7.46469C66.0494 7.41991 65.9534 7.37514 65.8511 7.33036ZM65.544 7.19604L50.3845 48.8624H50.7299L65.8447 7.33036C65.7487 7.28559 65.6464 7.24081 65.544 7.19604ZM65.237 7.06811L50.0327 48.8624H50.3781L65.544 7.19604C65.4417 7.15126 65.3394 7.11289 65.237 7.06811ZM64.93 6.94658L49.6745 48.8624H50.0199L65.2306 7.06811C65.1347 7.02973 65.0323 6.98496 64.93 6.94658ZM64.623 6.82505L49.3227 48.8624H49.6681L64.9236 6.94658C64.8276 6.9018 64.7253 6.86342 64.623 6.82505ZM64.3095 6.70991L48.9709 48.8624H49.3163L64.6166 6.82505C64.5142 6.78667 64.4119 6.74829 64.3095 6.70991ZM63.9961 6.60117L48.6191 48.8624H48.9645L64.3031 6.70991C64.2008 6.67153 64.0985 6.63315 63.9961 6.60117ZM63.6827 6.49243L48.2609 48.8624H48.6127L63.9961 6.60117C63.8874 6.56279 63.785 6.52441 63.6827 6.49243ZM63.3693 6.39009L47.9091 48.8624H48.2545L63.6763 6.49243C63.5739 6.45405 63.4716 6.42207 63.3693 6.39009ZM63.0494 6.29414L47.5573 48.8624H47.9027L63.3629 6.39009C63.2605 6.35171 63.1518 6.31973 63.0494 6.29414ZM62.7296 6.1982L47.2055 48.8624H47.5509L63.043 6.28775C62.9407 6.25576 62.8384 6.22378 62.7296 6.1982ZM62.4098 6.10865L46.8537 48.8624H47.1991L62.7296 6.1982C62.6209 6.16621 62.5185 6.13423 62.4098 6.10865ZM62.09 6.0191L46.4955 48.8624H46.8409L62.4034 6.10865C62.3011 6.07666 62.1987 6.04468 62.09 6.0191ZM61.7638 5.94234L46.1437 48.8624H46.4891L62.0836 6.0191C61.9812 5.99351 61.8725 5.96792 61.7638 5.94234ZM61.4439 5.85918L45.7919 48.8624H46.1373L61.7574 5.94234C61.655 5.91036 61.5463 5.88477 61.4439 5.85918ZM61.1113 5.78882L45.4401 48.8624H45.7855L61.4375 5.85918C61.3288 5.8336 61.2201 5.81441 61.1113 5.78882ZM60.7851 5.71846L45.0819 48.8624H45.4273L61.1113 5.78882C61.0026 5.76324 60.8938 5.74405 60.7851 5.71846ZM60.4589 5.6545L44.7301 48.8624H45.0755L60.7787 5.71846C60.67 5.69927 60.5676 5.67369 60.4589 5.6545ZM60.1263 5.59693L44.3783 48.8624H44.7237L60.4525 5.6545C60.3438 5.63531 60.235 5.61612 60.1263 5.59693ZM59.7937 5.53936L44.0265 48.8624H44.3719L60.1199 5.59693C60.0111 5.57774 59.9024 5.55855 59.7937 5.53936ZM59.4546 5.48819L43.6683 48.856H44.0137L59.7873 5.53936C59.6785 5.52017 59.5698 5.50738 59.4546 5.48819ZM59.122 5.44342L43.3165 48.8624H43.6619L59.4482 5.49459C59.3395 5.4754 59.2308 5.45621 59.122 5.44342ZM58.783 5.39864L42.9646 48.8624H43.3101L59.1156 5.44342C59.0069 5.42423 58.8918 5.41143 58.783 5.39864ZM58.444 5.36026L42.6128 48.856H42.9583L58.7766 5.39864C58.6679 5.38585 58.5527 5.37306 58.444 5.36026ZM58.105 5.32828L42.261 48.8624H42.6064L58.4376 5.36666C58.3289 5.34747 58.2137 5.34107 58.105 5.32828ZM57.7596 5.3027L41.9028 48.8624H42.2482L58.0986 5.32828C57.9835 5.32188 57.8747 5.30909 57.7596 5.3027ZM57.4142 5.27711L41.551 48.856H41.8964L57.7532 5.2963C57.6445 5.2899 57.5293 5.28351 57.4142 5.27711ZM57.0688 5.25792L41.1992 48.8624H41.5446L57.4078 5.28351C57.299 5.27071 57.1839 5.26432 57.0688 5.25792ZM56.7234 5.24513L40.8474 48.8624H41.1928L57.0624 5.25792C56.9472 5.25152 56.8321 5.24513 56.7234 5.24513ZM56.3716 5.23234L40.4956 48.856H40.841L56.717 5.24513C56.6018 5.23873 56.4867 5.23873 56.3716 5.23234ZM56.0198 5.23234L40.1374 48.8624H40.4828L56.3588 5.23873C56.25 5.23233 56.1349 5.23234 56.0198 5.23234ZM55.668 5.23234L39.7856 48.856H39.792H40.1374L56.0134 5.23234C55.9622 5.23234 55.9046 5.23234 55.8535 5.23234C55.7895 5.22594 55.7319 5.23234 55.668 5.23234ZM55.3098 5.23234L39.517 48.6257C39.6065 48.7025 39.6897 48.7792 39.7792 48.856L55.6552 5.23234C55.5464 5.23234 55.4249 5.23234 55.3098 5.23234ZM54.9516 5.24513L39.2547 48.3891C39.3443 48.4658 39.4274 48.5426 39.517 48.6257L55.3034 5.23234C55.1882 5.23873 55.0731 5.23873 54.9516 5.24513ZM54.5998 5.25792L38.9925 48.1396C39.082 48.2227 39.1652 48.2995 39.2547 48.3763L54.9516 5.24513C54.83 5.25152 54.7149 5.25152 54.5998 5.25792ZM54.2352 5.28351L38.7238 47.8965C38.807 47.9797 38.8965 48.0628 38.9797 48.1396L54.587 5.25792C54.4718 5.26432 54.3503 5.27071 54.2352 5.28351ZM53.8706 5.30909L38.4616 47.6407C38.5447 47.7238 38.6343 47.807 38.7174 47.8901L54.2288 5.28351C54.1072 5.2899 53.9921 5.2963 53.8706 5.30909ZM53.506 5.34107L38.2057 47.3848C38.2889 47.468 38.372 47.5575 38.4616 47.6407L53.8642 5.30909C53.749 5.31549 53.6275 5.32828 53.506 5.34107ZM53.1414 5.37306L37.9498 47.1162C38.033 47.2057 38.1162 47.2889 38.1993 47.3784L53.4996 5.34107C53.378 5.35387 53.2629 5.36026 53.1414 5.37306ZM52.7704 5.41783L37.694 46.8475C37.7771 46.9371 37.8603 47.0266 37.9434 47.1162L53.135 5.37945C53.0134 5.39225 52.8919 5.40504 52.7704 5.41783ZM52.3994 5.469L37.4381 46.5725C37.5213 46.662 37.6044 46.7516 37.6876 46.8411L52.764 5.41783C52.6424 5.43702 52.5209 5.44981 52.3994 5.469ZM52.0284 5.52017L37.1887 46.291C37.2718 46.387 37.355 46.4765 37.4317 46.5661L52.393 5.469C52.2715 5.48819 52.1499 5.50098 52.0284 5.52017ZM51.651 5.58414L36.9392 46.0032C37.0224 46.0991 37.0991 46.1951 37.1823 46.2846L52.022 5.52017C51.9005 5.53936 51.7725 5.56495 51.651 5.58414ZM51.2736 5.6545L36.6961 45.7089C36.7729 45.8049 36.8561 45.9008 36.9392 45.9968L51.6446 5.58414C51.5231 5.60333 51.4015 5.62891 51.2736 5.6545ZM50.8962 5.72486L36.4531 45.4019C36.5298 45.5043 36.613 45.6002 36.6897 45.6962L51.2672 5.6545C51.1457 5.67369 51.0178 5.69927 50.8962 5.72486ZM50.5124 5.80801L36.21 45.0949C36.2868 45.1972 36.3699 45.2996 36.4467 45.3955L50.8898 5.72486C50.7619 5.75045 50.6404 5.77603 50.5124 5.80801ZM50.1287 5.89117L35.9733 44.7815C36.0501 44.8838 36.1269 44.9861 36.21 45.0885L50.506 5.80801C50.3781 5.8336 50.2502 5.86558 50.1287 5.89117ZM49.7385 5.98711L35.7367 44.4616C35.8134 44.5704 35.8902 44.6727 35.967 44.7751L50.1223 5.89756C49.9943 5.92315 49.8664 5.95513 49.7385 5.98711ZM49.3483 6.08946L35.5064 44.129C35.5832 44.2378 35.6599 44.3465 35.7367 44.4552L49.7321 5.98711C49.6041 6.02549 49.4762 6.05747 49.3483 6.08946ZM48.9581 6.20459L35.2761 43.79C35.3529 43.8988 35.4233 44.0139 35.5 44.1226L49.3419 6.09585C49.214 6.12783 49.086 6.16621 48.9581 6.20459ZM48.5615 6.31973L35.0459 43.451C35.1162 43.5661 35.193 43.6749 35.2697 43.79L48.9517 6.20459C48.8174 6.24297 48.6895 6.28135 48.5615 6.31973ZM48.1585 6.44766L34.822 43.0928C34.8923 43.2079 34.9691 43.3231 35.0459 43.4382L48.5551 6.31973C48.4208 6.3645 48.2929 6.40288 48.1585 6.44766ZM47.7556 6.58198L34.5981 42.7346C34.6685 42.8561 34.7388 42.9713 34.8156 43.0928L48.1522 6.45405C48.0178 6.49243 47.8899 6.53721 47.7556 6.58198ZM47.3526 6.7227L34.3806 42.3636C34.451 42.4851 34.5214 42.6067 34.5981 42.7282L47.7556 6.58838C47.6149 6.63315 47.4869 6.67793 47.3526 6.7227ZM46.9432 6.88261L34.1696 41.9798C34.2399 42.1078 34.3103 42.2293 34.3806 42.3508L47.3462 6.7227C47.2119 6.77387 47.0776 6.83144 46.9432 6.88261ZM46.5275 7.04252L33.9585 41.5896C34.0288 41.7176 34.0928 41.8455 34.1632 41.9734L46.9368 6.88261C46.8025 6.93379 46.6618 6.99135 46.5275 7.04252ZM46.1117 7.21523L33.7474 41.1931C33.8114 41.3274 33.8817 41.4553 33.9521 41.5832L46.5211 7.04252C46.3867 7.10009 46.2524 7.15766 46.1117 7.21523ZM45.6959 7.40072L33.5427 40.7837C33.6067 40.918 33.677 41.0523 33.741 41.1867L46.1053 7.22162C45.971 7.27919 45.8302 7.33676 45.6959 7.40072ZM45.2674 7.59901L33.3444 40.3615C33.4084 40.5023 33.4723 40.6366 33.5427 40.7773L45.6895 7.40712C45.5488 7.46469 45.4081 7.53505 45.2674 7.59901ZM44.8388 7.8037L33.1525 39.9266C33.2165 40.0673 33.2805 40.2144 33.3444 40.3551L45.2674 7.60541C45.1202 7.66937 44.9795 7.73974 44.8388 7.8037ZM44.4038 8.02758L32.9542 39.4788C33.0182 39.6259 33.0758 39.7731 33.1397 39.9202L44.826 7.81649C44.6917 7.88046 44.5446 7.95082 44.4038 8.02758ZM43.9689 8.25785L32.7751 39.0183C32.8327 39.1718 32.8967 39.3189 32.9542 39.4724L44.3974 8.03397C44.2567 8.10433 44.1096 8.18109 43.9689 8.25785ZM43.5211 8.50731L32.596 38.5385C32.6536 38.6921 32.7112 38.852 32.7751 39.0055L43.9625 8.26424C43.8154 8.3474 43.6683 8.42415 43.5211 8.50731ZM43.0734 8.77596L32.4169 38.0524C32.4745 38.2123 32.5321 38.3722 32.5896 38.5322L43.5147 8.5137C43.3676 8.59686 43.2205 8.68641 43.0734 8.77596ZM42.6192 9.0574L32.2506 37.5407C32.3018 37.707 32.3594 37.8733 32.4169 38.0396L43.067 8.77596C42.9135 8.8719 42.7664 8.96145 42.6192 9.0574ZM42.1587 9.35803L32.0907 37.0162C32.1419 37.1889 32.1931 37.3616 32.2506 37.5343L42.6128 9.0638C42.4593 9.15974 42.3058 9.25569 42.1587 9.35803ZM41.6854 9.67785L31.9372 36.4725C31.9884 36.6516 32.0395 36.8307 32.0907 37.0098L42.1523 9.36443C41.9924 9.46677 41.8389 9.56911 41.6854 9.67785ZM41.2056 10.0169L31.7901 35.9032C31.8349 36.0887 31.886 36.2742 31.9308 36.4597L41.679 9.68425C41.5191 9.79299 41.3655 9.90813 41.2056 10.0169ZM40.7195 10.3879L31.6494 35.3083C31.6941 35.5066 31.7389 35.6985 31.7837 35.8904L41.1992 10.0233C41.0393 10.1448 40.8794 10.2663 40.7195 10.3879ZM40.227 10.778L31.5278 34.6815C31.5662 34.8862 31.611 35.0909 31.6558 35.2892L40.7195 10.3879C40.5468 10.5222 40.3869 10.6501 40.227 10.778ZM39.7153 11.2066L31.4063 34.0355C31.4383 34.2529 31.4767 34.464 31.5214 34.6751L40.2142 10.7844C40.0479 10.9252 39.8816 11.0595 39.7153 11.2066ZM39.1971 11.6607L31.304 33.3446C31.3359 33.5685 31.3679 33.7988 31.4063 34.0227L39.7089 11.213C39.5362 11.3601 39.3635 11.5072 39.1971 11.6607ZM38.6598 12.1661L31.2208 32.6155C31.2464 32.8585 31.272 33.0952 31.304 33.3319L39.1908 11.6671C39.0117 11.8335 38.8326 11.9998 38.6598 12.1661ZM38.1098 12.7162L31.1504 31.8351C31.1696 32.0909 31.1952 32.3468 31.2208 32.6027L38.6535 12.1789C38.468 12.3516 38.2889 12.5371 38.1098 12.7162ZM37.5341 13.3238L31.0993 30.9972C31.1121 31.2722 31.1249 31.5472 31.144 31.8223L38.097 12.729C37.9051 12.9272 37.7196 13.1255 37.5341 13.3238ZM36.9264 14.0146L31.0801 30.0761C31.0801 30.3767 31.0865 30.6773 31.0993 30.978L37.5213 13.3366C37.3166 13.5605 37.1247 13.7844 36.9264 14.0146ZM36.2868 14.8078L31.0993 29.059C31.0865 29.3725 31.0801 29.6859 31.0801 29.9993V30.0633L36.9136 14.0274C36.7025 14.2833 36.4915 14.5455 36.2868 14.8078ZM35.596 15.7417L31.176 27.8949C31.144 28.2723 31.1185 28.6561 31.1057 29.0398L36.2804 14.8206C36.0437 15.1212 35.8134 15.4282 35.596 15.7417ZM34.8092 16.925L31.3295 26.4813C31.2656 26.9418 31.2144 27.4024 31.1696 27.8629L35.5768 15.7545C35.3145 16.1446 35.0587 16.5284 34.8092 16.925ZM33.8305 18.652L31.6877 24.5368C31.547 25.17 31.4255 25.8097 31.3359 26.4621L34.7964 16.9506C34.451 17.5007 34.1312 18.07 33.8305 18.652ZM31.6941 24.492L33.805 18.6904C32.8775 20.507 32.1611 22.4515 31.6941 24.492ZM80.6268 30.0377V30.0249V30.0121V29.9993C80.6268 29.9481 80.6268 29.8906 80.6268 29.8394L74.7165 46.0799C74.9276 45.8305 75.1387 45.5746 75.3434 45.3188L80.6204 30.8245C80.6204 30.5494 80.6268 30.2935 80.6268 30.0377ZM80.0767 35.206L77.7548 41.5832C78.8038 39.6004 79.597 37.4576 80.0767 35.206Z" fill="white"/>
</mask>
<g mask="url(#mask0_56_14361)">
<path d="M80.6204 5.22607H31.0801V48.8561H80.6204V5.22607Z" fill="url(#paint0_linear_56_14361)"/>
</g>
<path d="M73.4822 47.4038H38.2251C38.724 47.9091 39.2485 48.3953 39.7922 48.8622H71.9151C72.4588 48.3953 72.9769 47.9091 73.4822 47.4038Z" fill="black"/>
<path d="M69.1005 25.1444C69.1005 25.1444 69.5994 28.3682 65.5249 27.1082C65.4801 27.0954 63.977 26.8267 63.3629 26.0591C63.3629 26.0591 60.5997 21.7415 57.5294 21.5688C57.4782 21.5688 56.3013 21.5177 55.2714 21.5177C55.2203 21.5177 52.6937 21.3194 51.6958 20.0209C51.651 19.9633 49.7321 17.4431 47.8196 17.9613C47.7684 17.974 46.1565 17.7438 43.1502 21.8823C43.1182 21.9206 41.6342 23.6285 40.0223 22.6818C39.9776 22.6562 38.7558 22.2341 37.4126 23.878C37.3806 23.9163 35.3338 25.9568 34.2847 26.7563C34.2847 26.7563 33.1909 28.6177 33.8882 32.5387C33.8946 32.5899 34.1888 34.0035 33.837 35.0461C33.8178 35.0909 34.3871 36.2614 34.483 36.4597C34.5022 36.5045 35.0971 36.1591 34.7837 34.8478C34.7837 34.8478 34.5854 34.0994 34.854 32.4875C34.854 32.4875 34.7389 30.607 34.4894 29.9098C34.4894 29.9098 34.9052 29.0655 35.1035 30.8245C35.1099 30.8948 35.3529 34.1506 35.7495 35.0973C35.7687 35.1421 36.4979 37.8542 35.999 41.1803C35.9798 41.289 35.8966 42.6451 35.3529 43.5918C35.3274 43.6365 35.0011 44.257 35.7047 44.6088C35.7495 44.6344 37.8156 47.5831 37.8156 48.1332L39.1268 48.2803C39.1268 48.2803 38.807 47.3656 38.2633 46.6173C38.2633 46.6173 38.1162 45.7537 38.8774 46.9179C38.903 46.9627 39.4722 47.7686 39.6258 48.3315C39.6449 48.4019 40.937 48.4786 40.937 48.4786C40.937 48.4786 39.6705 46.5661 39.3763 44.903C39.3699 44.8518 39.5938 43.8412 39.0757 43.144C39.0757 43.144 38.807 42.9457 39.5746 37.6111C39.581 37.5599 40.4189 36.2678 40.5724 35.3979C40.5788 35.3468 40.1247 34.0547 40.9882 33.1848C40.9882 33.1848 42.7024 32.4684 42.9519 33.4342C42.9519 33.4342 44.5958 35.3468 48.8174 35.6474C48.8174 35.6474 51.0946 35.9608 53.506 35.2956C53.506 35.2956 54.3503 35.4939 55.3162 35.545C55.3162 35.545 54.7981 40.8349 54.0497 42.4916C54.0497 42.4916 53.4037 43.3871 53.8002 44.8007C53.8194 44.871 54.1968 45.1653 52.9559 47.6279C52.9303 47.6727 54.2992 47.9285 54.2992 47.9285C54.2992 47.9285 53.9474 48.0117 55.2139 45.4019C55.233 45.3572 56.1094 44.4553 56.0134 42.6899C56.007 42.6195 56.1477 41.1419 56.6147 40.1825C56.6147 40.1825 56.7618 39.4149 56.717 41.1291C56.717 41.1291 56.2181 43.4894 56.5187 44.7559C56.5315 44.8263 56.9857 45.5746 56.4676 48.0309C56.4548 48.1012 57.8812 48.3827 57.8812 48.3827C57.8812 48.3827 57.3311 47.2185 58.0283 44.7559C58.0539 44.66 58.9238 43.8412 58.476 41.8775C58.476 41.8775 58.6743 38.8712 59.6914 35.7945C59.6914 35.7945 59.9408 35.3979 60.1391 34.8478C60.1391 34.8478 61.5016 34.1506 61.8022 33.5366C61.8214 33.4918 61.9045 32.6922 63.8618 32.8394C63.8618 32.8394 69.35 33.1912 71.6591 30.1273C71.6591 30.1273 73.8722 28.6177 73.6676 23.7244C73.6676 23.7244 74.4671 22.1317 76.079 21.4665C76.079 21.4665 77.9404 22.733 77.9404 20.4175C77.9404 20.3663 77.6909 18.7544 75.6824 18.5561C75.6313 18.5497 74.2304 18.5945 73.8211 19.0039C73.7699 19.055 72.6569 19.4005 72.0557 18.7032C72.0237 18.6649 71.4608 18.4026 70.8403 18.7544C70.7956 18.78 69.4459 18.2043 69.4459 19.0039C69.4459 19.055 69.6442 20.2192 69.2988 21.8823C69.286 21.9334 69.1517 23.6797 69.1517 24.5432C69.1517 24.5944 69.1005 25.1444 69.1005 25.1444Z" fill="black"/>
<path fill-rule="evenodd" clip-rule="evenodd" d="M23.0142 55.7001V61.7639V63.4781H28.6814L28.7518 63.3502L28.8157 63.1519L28.8797 62.9536L28.9437 62.8193L29.014 62.5571L29.078 62.3588L29.1419 62.2244L29.2123 61.9622V61.8343H27.6963L25.3233 61.8982V60.184V57.8749L25.3872 54.4464V54.0498H23.0142V55.7001Z" fill="white"/>
<path fill-rule="evenodd" clip-rule="evenodd" d="M30.0698 54.9773V62.4931V63.4781H35.6731L35.7371 63.4142L35.801 63.2159L35.865 62.9536L35.9354 62.8193L35.9993 62.621L36.0633 62.4227L36.1336 62.2244L36.1976 62.0965V61.8343H35.6027L32.3725 61.8982V60.12V59.4548H33.7606L35.4748 59.5251H35.6731L35.7371 59.4548V57.8749L35.6731 57.8109H34.6177L32.3022 57.8749L32.3725 57.28V55.6297L35.4748 55.7001H35.801V54.0498H30.0698V54.9773Z" fill="white"/>
<path fill-rule="evenodd" clip-rule="evenodd" d="M79.6997 54.1841L79.7701 54.3121L79.834 54.3824L79.898 54.5103L79.9684 54.5807L80.0323 54.7086L80.0963 54.779L80.1666 54.843L80.2306 54.9773L80.2946 55.0413L80.3585 55.1692L80.4289 55.3035L80.4929 55.3675L80.5568 55.4378L80.6272 55.5658L80.6912 55.6361L80.7551 55.7001L80.8255 55.8344L80.8894 55.9623L80.9534 56.0263L81.0174 56.1606L81.0877 56.2246L81.1517 56.3589L81.2157 56.4229L81.286 56.4932L81.35 56.6212L81.414 56.6915L81.4843 56.8195L81.5483 56.8834L81.6122 57.0177L81.6826 57.0817L81.7466 57.216L81.8105 57.28L81.8809 57.4143L81.9449 57.5487L82.0088 57.6126L82.0728 57.7405L82.1431 57.8109L82.2071 57.9388L82.2711 58.0092L82.3414 58.1371L82.4054 58.2075L82.4694 58.3354L82.5397 58.4058L82.6037 58.5337L82.6677 58.668L82.7316 58.732L82.802 58.8663L82.8659 58.9303L82.9299 59.0646L83.0003 59.1925L83.0642 59.2629L83.1282 59.3908L83.1986 59.4548V60.7788L83.1282 62.6914V63.4781H85.5013V62.3588V59.3908L85.5716 59.2629L85.6356 59.1925L85.6996 59.0646L85.7635 58.9942L85.8339 58.9303L85.8978 58.796L85.9618 58.732L86.0322 58.5977L86.0961 58.5337L86.1601 58.4058L86.2305 58.3354L86.2944 58.2075L86.3584 58.1371L86.4287 58.0092L86.4927 57.9388L86.5567 57.8749L86.6206 57.7405L86.691 57.6766L86.755 57.5487L86.8189 57.4783L86.8893 57.3504L86.9533 57.28L87.0172 57.1521L87.0876 57.0817L87.1515 56.9538L87.2155 56.8834L87.2795 56.8195L87.3498 56.6915L87.4138 56.6212L87.4778 56.4932L87.5481 56.4229L87.6121 56.295L87.6761 56.2246L87.7464 56.1606L87.8104 56.0263L87.8743 55.9623L87.9447 55.8344L88.0087 55.764L88.0726 55.7001L88.1366 55.5658L88.207 55.5018L88.2709 55.3675L88.3349 55.3035L88.4053 55.1692L88.4692 55.1052L88.5332 55.0413L88.6035 54.9069L88.6675 54.843L88.7315 54.7086L88.8018 54.6447L88.8658 54.5807L88.9298 54.5103L88.9937 54.3824L89.0641 54.3121L89.128 54.1841V54.0498H86.5567L86.4927 54.1841L86.4287 54.2481L86.3584 54.4464L86.2944 54.5103L86.2305 54.6447L86.1601 54.7086L86.0961 54.9069L86.0322 54.9773L85.9618 55.1052L85.8978 55.2395L85.8339 55.3675L85.7635 55.5018L85.6996 55.5658L85.6356 55.7001L85.5716 55.8344L85.5013 55.9623L85.4373 56.0967L85.3733 56.2246L85.303 56.295L85.239 56.4229L85.1751 56.5572L85.1047 56.6915L85.0407 56.8195L84.9768 56.9538L84.9064 57.0177L84.8424 57.216L84.7785 57.28L84.7145 57.4783L84.6441 57.5487L84.5802 57.6766V57.8109H84.4459V57.6766L84.3819 57.5487L84.3179 57.4143L84.2476 57.28L84.1836 57.216L84.1196 57.0177L84.0557 56.9538L83.9853 56.8195L83.9213 56.6915L83.8574 56.5572L83.787 56.4229L83.7231 56.295L83.6591 56.2246L83.5887 56.0967L83.5248 55.9623L83.4608 55.8344L83.3904 55.7001L83.3265 55.5658L83.2625 55.5018L83.1986 55.3675L83.1282 55.2395L83.0642 55.1052L83.0003 55.0413L82.9299 54.9069L82.8659 54.779L82.802 54.6447L82.7316 54.5103L82.6677 54.4464L82.6037 54.3121L82.5397 54.1841L82.4694 54.0498H79.6997V54.1841Z" fill="white"/>
<path fill-rule="evenodd" clip-rule="evenodd" d="M47.3398 54.312L47.4038 55.6296V61.8278L47.3398 63.2158V63.478H51.5615L52.086 63.4141L52.4186 63.3501L52.7512 63.2862L52.9495 63.2222L53.1478 63.1582L53.3461 63.0943L53.5444 63.0303L53.6083 62.9663L53.8066 62.9024L53.941 62.8384L54.0753 62.7744L54.2096 62.7105L54.2736 62.6465L54.4079 62.5825L54.4719 62.5186L54.6062 62.4546L54.6702 62.3907L54.7341 62.3267L54.7981 62.2627L54.9324 62.1988L54.9964 62.1348V62.0005H55.1307V61.8661H55.265L55.329 61.7318L55.3929 61.6679L55.4569 61.6039L55.5209 61.4696L55.5848 61.4056L55.6488 61.3416L55.7128 61.2073L55.7767 61.073L55.8407 61.009L55.9047 60.8107L55.9686 60.7468L56.0326 60.5485L56.0966 60.3502L56.1605 60.2159L56.2245 59.8833L56.2884 59.685L56.3524 59.1605V57.7788L56.2884 57.3822L56.2245 57.12L56.1605 56.8577L56.0966 56.7234L56.0326 56.5251L55.9686 56.3908L55.9047 56.2565L55.8407 56.1222L55.7767 56.0582L55.7128 55.9239L55.6488 55.8599L55.5848 55.7959L55.5209 55.732L55.4569 55.668L55.3929 55.5337L55.329 55.4697L55.265 55.4058L55.2011 55.3418L55.1371 55.2778L55.0028 55.2139L54.9388 55.1499L54.8748 55.0859L54.7405 55.022L54.6765 54.958L54.5422 54.894L54.4783 54.8301L54.3439 54.7661L54.2096 54.7021L54.0753 54.6382L53.877 54.5742L53.7299 54.4463L53.4676 54.3823L53.2693 54.3184L53.0071 54.2544L52.7448 54.1904L52.2843 54.1265L51.4272 54.0625H47.3398V54.312ZM53.8642 59.7233L53.8002 59.9856L53.7299 60.1839L53.6659 60.3182L53.6019 60.4525L53.538 60.5165L53.474 60.6508L53.4101 60.7148L53.3461 60.7788L53.2821 60.9131L53.2182 60.977L53.1542 61.041L53.0199 61.105L52.9559 61.1689L52.8919 61.2329L52.828 61.2969L52.6937 61.3608L52.5593 61.4248L52.425 61.4888L52.2907 61.5527L52.1564 61.6167L51.8941 61.6807L51.6958 61.7446L51.2353 61.8086L49.7193 61.8725V61.476V55.9367V55.604L51.1009 55.6744L51.6958 55.7384L52.022 55.8023L52.1564 55.8663L52.3546 55.9303L52.489 55.9942L52.6233 56.0582L52.7576 56.1222L52.8919 56.1861L52.9559 56.2501L53.0902 56.314L53.1542 56.378L53.2182 56.442L53.2821 56.5059L53.3461 56.5699L53.4101 56.7042L53.474 56.7682L53.538 56.9025L53.6019 56.9665L53.6659 57.1008L53.7299 57.2351L53.7938 57.4334L53.8578 57.6317L53.9218 57.894V59.4099L53.8642 59.7233Z" fill="white"/>
<path fill-rule="evenodd" clip-rule="evenodd" d="M40.5468 54.0498L40.4829 54.1841L40.4189 54.3824L40.3549 54.5167L40.291 54.715L40.227 54.8494L40.1631 55.0476L40.0991 55.182L40.0351 55.3803L39.9712 55.5146L39.9072 55.6489L39.8432 55.8472L39.7793 55.9815L39.7153 56.1798L39.6513 56.3141L39.5874 56.4485L39.5234 56.5828L39.4594 56.7811L39.3955 56.9154L39.3315 57.1137L39.2676 57.312L39.2036 57.3759L39.1396 57.5742L39.0757 57.7086L39.0117 57.9068L38.9477 58.0412L38.8838 58.1755L38.8198 58.3738L38.7558 58.5081L38.6919 58.7064L38.6279 58.7704L38.5639 58.9687L38.5 59.103L38.436 59.3013L38.3721 59.4356L38.3081 59.5699L38.2441 59.7682L38.1802 59.9025L38.1162 60.0369L38.0522 60.1712L37.9883 60.3695L37.9243 60.5038L37.8603 60.6381L37.7964 60.8364L37.7324 60.9707L37.6684 61.1051L37.6045 61.2394L37.5405 61.4377L37.4766 61.572L37.4126 61.7063L37.3486 61.9046L37.2847 61.9686L37.2207 62.1669L37.1567 62.3012L37.0928 62.4355L37.0288 62.5698L36.9648 62.7681L36.9009 62.9025L36.8369 63.0368L36.7729 63.1711L36.709 63.3054L36.645 63.5037V63.5677H38.8198L38.8838 63.5037L38.9477 63.3054L39.0117 63.1711L39.0757 62.9728L39.1396 62.7745L39.2036 62.6402L39.2676 62.4419L39.3315 62.3076L39.3955 62.1093L39.4594 61.975L39.5234 61.7767L39.5874 61.5784L39.6513 61.4441V61.3098L43.1438 61.3801L43.2078 61.5784L43.2717 61.7767L43.3357 61.975L43.3996 62.1733L43.4636 62.3716L43.5276 62.5059L43.5915 62.7681L43.6555 62.9664L43.7195 63.1008L43.7834 63.299L43.8474 63.4334L43.9114 63.5677H46.5467V63.3694L46.4827 63.3054L46.4188 63.1072L46.3548 62.9728L46.2908 62.7745L46.2269 62.6402L46.1629 62.5059L46.0989 62.3076L46.035 62.1733L45.971 62.0389L45.907 61.9046L45.8431 61.7063L45.7791 61.572L45.7152 61.4377L45.6512 61.2394L45.5872 61.1051L45.5233 60.9068L45.4593 60.7725L45.3953 60.5742L45.3314 60.4398L45.2674 60.3055L45.2034 60.1072L45.1395 59.9729L45.0755 59.7746L45.0116 59.6403L44.9476 59.442L44.8836 59.3077L44.8197 59.1094L44.7557 59.0454L44.6917 58.8471L44.6278 58.6488L44.5638 58.5145L44.4998 58.3162L44.4359 58.1819L44.3719 57.9836L44.3079 57.8493L44.244 57.651L44.18 57.4527L44.1161 57.3184L44.0521 57.1201L43.9881 56.9858L43.9242 56.7875L43.8602 56.6532L43.7962 56.4549L43.7323 56.2566L43.6683 56.0583L43.6043 55.86L43.5404 55.7257L43.4764 55.5274L43.4124 55.3931L43.3485 55.1948L43.2845 55.0604L43.2205 54.7982L43.1566 54.5999L43.0926 54.4656L42.856 54.2481L42.792 54.0498L42.728 53.9858H40.6172L40.5468 54.0498ZM40.2206 59.5251L40.2846 59.3908L40.3486 59.1925L40.4125 58.9942L40.4765 58.8599L40.5404 58.6616L40.6044 58.4633L40.6684 58.265L40.7323 58.1307L40.7963 57.9324L40.8603 57.7981L40.9242 57.5998L40.9882 57.4015L41.0522 57.2032L41.1161 57.005L41.1801 56.8706L41.2441 56.6723L41.308 56.4741L41.372 56.3397L41.4359 56.538L41.4999 56.7363L41.5639 56.9346L41.6278 57.0689L41.6918 57.3312L41.7558 57.4655L41.8197 57.7278L41.8837 57.8621L41.9477 58.1243L42.0116 58.3226L42.0756 58.4569L42.1396 58.7192L42.2035 58.8535L42.2675 59.0518L42.3314 59.2501L42.3954 59.4484L42.4594 59.6467L40.0799 59.6403L40.2206 59.5251Z" fill="white"/>
<path fill-rule="evenodd" clip-rule="evenodd" d="M57.0244 54.1841L57.0948 54.3121L57.1587 54.5103L57.2227 54.6447L57.2931 54.843L57.357 55.0413L57.421 55.2395L57.4914 55.3675L57.5553 55.5658L57.6193 55.764L57.6832 55.8984L57.7536 56.0967L57.8176 56.2246L57.8815 56.4932L57.9519 56.6212L58.0159 56.8195L58.0798 57.0177L58.1502 57.216L58.2142 57.4143L58.2781 57.5487L58.3485 57.7405L58.4124 57.9388L58.4764 58.1371L58.5404 58.3354L58.6107 58.5337L58.6747 58.732L58.7387 58.8663L58.809 59.1286L58.873 59.2629L58.9369 59.4548L59.0073 59.6531L59.0713 59.8514L59.1352 60.0497L59.1992 60.2479L59.2696 60.4462L59.3335 60.6445L59.3975 60.8428L59.4679 60.9771L59.5318 61.2394L59.5958 61.4377L59.6661 61.636L59.7301 61.8343L59.7941 61.9622L59.8644 62.2244L59.9284 62.3588L59.9924 62.621L60.0563 62.8193L60.1267 63.0176L60.1906 63.2159L60.2546 63.4142L60.325 63.5485H62.4998L62.5637 63.4142L62.6277 63.2159L62.698 63.0176L62.762 62.7553L62.826 62.621L62.8963 62.3588L62.9603 62.2244L63.0243 61.9622L63.0882 61.8343L63.1586 61.5656L63.2226 61.4377L63.2865 61.169L63.3569 60.9771L63.4208 60.8428L63.4848 60.5806L63.5552 60.4462L63.6191 60.2479L63.6831 60.0497L63.7535 59.8514L63.8174 59.6531L63.8814 59.4548L63.9454 59.2629L64.0157 59.1286V58.8663H64.1436V58.9942L64.214 59.2629L64.278 59.4548L64.3419 59.5891L64.4123 59.8514L64.4763 59.9857L64.5402 60.184L64.6106 60.3823L64.6745 60.5806L64.7385 60.7788L64.8025 60.9771L64.8728 61.169L64.9368 61.3673L65.0008 61.5656L65.0711 61.7639L65.1351 61.9622L65.1991 62.1605L65.2694 62.3588L65.3334 62.621L65.3973 62.7553L65.4677 63.0176L65.5317 63.1519L65.5956 63.4142L65.6596 63.5485H68.0327L68.103 63.3502L68.167 63.1519L68.231 63.0176L68.3013 62.7553L68.3653 62.621L68.4292 62.3588L68.4996 62.1605L68.5636 61.9622L68.6275 61.7639L68.6915 61.636L68.7619 61.3673L68.8258 61.2394L68.8898 61.0411L68.9601 60.8428L69.0241 60.6445L69.0881 60.4462L69.1584 60.2479L69.2224 60.0497L69.2864 59.9217L69.3503 59.6531L69.4207 59.5251L69.4847 59.3269L69.5486 59.1286L69.619 58.9303L69.683 58.732L69.7469 58.5977L69.8173 58.3354L69.8812 58.2075L69.9452 58.0092L70.0156 57.8109L70.0795 57.6766L70.1435 57.4143L70.2075 57.28L70.2778 57.0817L70.3418 56.9538L70.4057 56.6915L70.4761 56.5572L70.5401 56.3589L70.604 56.1606L70.6744 56.0263L70.7384 55.764L70.8023 55.6361L70.8663 55.4378L70.9366 55.3035L71.0006 55.1052L71.0646 54.9069L71.1349 54.7086L71.1989 54.5103L71.2629 54.3824L71.3332 54.1841V54.0498H69.0881L69.0241 54.1202L68.9601 54.3121L68.8898 54.5807L68.8258 54.779L68.7619 54.9773L68.6915 55.2395L68.6275 55.3675L68.5636 55.6361L68.4996 55.8344L68.4292 56.0967L68.3653 56.295L68.3013 56.4932L68.231 56.7555L68.167 56.9538L68.103 57.216L68.0327 57.4143L67.9687 57.6126L67.9047 57.8109L67.8344 58.0732L67.7704 58.3354L67.7065 58.5337L67.6425 58.796L67.5721 58.9303L67.5082 59.1925L67.4442 59.3908L67.3738 59.6531L67.3099 59.9217L67.2459 60.12L67.1755 60.3823L67.1116 60.5806V60.8428H66.9837V60.6445L66.9133 60.3823L66.8493 60.184L66.7854 59.9857L66.715 59.7234L66.651 59.5251L66.5871 59.2629L66.5167 59.1286L66.4528 58.8663L66.3888 58.668L66.3184 58.4058L66.2545 58.2075L66.1905 58.0092L66.1265 57.7405L66.0562 57.6126L65.9922 57.3504L65.9282 57.216L65.8579 56.9538L65.7939 56.6915L65.73 56.5572L65.6596 56.295L65.5956 56.0967L65.5317 55.8984L65.4677 55.7001L65.3973 55.5018L65.3334 55.3035L65.2694 55.1052L65.1991 54.843L65.1351 54.7086L65.0711 54.4464L65.0008 54.3121L64.9368 54.0498H62.3654V54.1841L62.4294 54.3824L62.4998 54.5103L62.5637 54.7086L62.6277 54.843L62.698 55.1052L62.762 55.3035L62.826 55.4378L62.8963 55.6361L62.9603 55.8344L63.0243 56.0263L63.0882 56.1606L63.1586 56.4229V56.7555L63.0882 57.0177L63.0243 57.1521L62.9603 57.3504L62.8963 57.4783L62.826 57.7405L62.762 57.8749L62.698 58.0732L62.6277 58.2714L62.5637 58.4697L62.4998 58.668L62.4294 58.796L62.3654 59.0646L62.3015 59.1925L62.2375 59.4548L62.1671 59.5891L62.1032 59.8514L62.0392 60.0497L61.9689 60.184L61.9049 60.4462L61.8409 60.6445V60.8428H61.7066V60.6445L61.6426 60.3823L61.5787 60.12L61.5083 59.9217L61.4443 59.6531L61.3804 59.4548L61.31 59.2629L61.2461 59.0646L61.1821 58.796L61.1117 58.5337L61.0478 58.3354L60.9838 58.0732L60.9134 57.9388L60.8495 57.6766L60.7855 57.4783L60.7215 57.216L60.6512 57.0177L60.5872 56.8195L60.5233 56.5572L60.4529 56.4229L60.3889 56.1606L60.325 55.9623L60.2546 55.764L60.1906 55.5658L60.1267 55.3035L60.0563 55.1052L59.9924 54.9069L59.9284 54.7086L59.8644 54.5103L59.7941 54.3121L59.7301 54.1202L59.6661 54.0498H57.0244V54.1841Z" fill="white"/>
<path fill-rule="evenodd" clip-rule="evenodd" d="M74.6273 54.1202L74.5633 54.3185L74.4993 54.4528L74.4354 54.6511L74.3714 54.7854L74.3074 54.9198L74.2435 55.0541L74.1795 55.2524L74.1155 55.3867L74.0516 55.585L73.9876 55.7833L73.9237 55.9176L73.8597 56.1159L73.7957 56.1799L73.7318 56.3782L73.6678 56.5125L73.6038 56.7108L73.5399 56.8451L73.4759 56.9794L73.4119 57.1777L73.348 57.312L73.284 57.5103L73.22 57.6446L73.1561 57.779L73.0921 57.9133L73.0282 58.1116L72.9642 58.3099L72.9002 58.3738L72.8363 58.5721L72.7723 58.7065L72.7083 58.9047L72.6444 59.0391L72.5804 59.1734L72.5164 59.3717L72.4525 59.506L72.3885 59.6403L72.3245 59.7747L72.2606 59.9729L72.1966 60.1073L72.1327 60.2416L72.0687 60.4399L72.0047 60.5742L71.9408 60.7085L71.8768 60.8429L71.8128 61.0412L71.7489 61.1755L71.6849 61.3098L71.6209 61.4441L71.557 61.6424L71.493 61.7767L71.429 61.9111L71.3651 62.1094L71.3011 62.1733L71.2372 62.3716L71.1732 62.5059L71.0005 62.5571L70.9365 62.7554L70.8726 62.8897L70.8086 63.024L70.7446 63.1584L70.6807 63.3567V63.491H72.8555L72.9194 63.3567L72.9834 63.1584L73.0473 63.024L73.1113 62.8258L73.1753 62.6275L73.2392 62.4931L73.3032 62.2948L73.3672 62.0966L73.4311 61.9622L73.4951 61.7639L73.5591 61.5657L73.623 61.3674C73.7382 61.0923 75.0174 61.233 75.4012 61.233C75.785 61.233 77.0707 61.0859 77.1794 61.3674L77.2434 61.6296L77.3074 61.8279L77.3713 62.0262L77.4353 62.1605L77.4993 62.4228L77.5632 62.5571L77.6272 62.7554L77.6912 62.9537L77.7551 63.152L77.8191 63.3503L77.883 63.4846H80.5887V63.3503L80.5248 63.2863L80.4608 63.088L80.3968 62.9537L80.3329 62.8194L80.2689 62.6211L80.2049 62.4867L80.141 62.3524L80.077 62.2181L80.0131 62.0198L79.9491 61.8855L79.8851 61.6872L79.8212 61.5529L79.7572 61.4185L79.6932 61.2202L79.6293 61.0859L79.5653 60.8876L79.5013 60.8237L79.4374 60.6254L79.3734 60.4911L79.3094 60.2928L79.2455 60.0945L79.1815 59.9602L79.1176 59.8258L79.0536 59.6915L78.9896 59.4932L78.9257 59.3589L78.8617 59.1606L78.7977 58.9623L78.7338 58.828L78.6698 58.6297L78.6058 58.4954L78.5419 58.2971L78.4779 58.1628L78.4139 57.9645L78.35 57.8301L78.286 57.6319L78.2221 57.4975L78.1581 57.2992L78.0941 57.1009L78.0302 56.9666L77.9662 56.7683L77.9022 56.634L77.8383 56.4357L77.7743 56.2374L77.7103 56.1031L77.6464 55.9048L77.5824 55.7705L77.5185 55.5722L77.4545 55.4379L77.3905 55.1756L77.3266 55.0413L77.2626 54.843L77.1986 54.6447L77.1347 54.5104L77.0707 54.2481L77.0067 54.1138L76.9428 53.9155H74.768L74.6273 54.1202ZM74.2946 59.5892L74.3586 59.3909L74.4226 59.2565L74.4865 59.0583L74.5505 58.9239L74.6145 58.7256L74.6784 58.5274L74.7424 58.393L74.8064 58.1947L74.8703 58.0604L74.9343 57.8621L74.9983 57.6638L75.0622 57.4655L75.1262 57.3312L75.1901 57.1329L75.2541 56.9346L75.3181 56.7364L75.382 56.5381L75.446 56.4037L75.51 56.2055V56.4677L75.5739 56.666L75.6379 56.8003L75.7019 57.0626L75.7658 57.1969L75.8298 57.4592L75.8938 57.5935L75.9577 57.7918L76.0217 57.9901L76.0856 58.1883L76.1496 58.3866L76.2136 58.5849L76.2775 58.7832L76.3415 58.9815L76.4055 59.1798L76.4694 59.3781L76.5334 59.5764H74.2946V59.5892Z" fill="white"/>
<path d="M4.78453 74.5314C4.63741 74.6082 4.43273 74.6722 4.17687 74.7169C3.92101 74.7617 3.66515 74.7873 3.41569 74.7873C2.76965 74.7873 2.25154 74.5762 1.87415 74.1605C1.49676 73.7447 1.30487 73.2138 1.30487 72.5613C1.30487 72.2415 1.35604 71.9409 1.45199 71.6722C1.54794 71.3972 1.68866 71.1605 1.87415 70.9558C2.05325 70.7512 2.27713 70.5912 2.53299 70.4761C2.78884 70.361 3.07668 70.3034 3.3965 70.3034C3.64597 70.3034 3.87624 70.329 4.09372 70.3738C4.3048 70.4185 4.52228 70.5081 4.74615 70.6296L4.8357 69.5742C4.62462 69.4911 4.38795 69.4271 4.13849 69.3823C3.88263 69.3375 3.65236 69.3184 3.42849 69.3184C2.36668 69.3184 1.52875 69.6062 0.921086 70.1883C0.300632 70.7767 0 71.5955 0 72.6573C0 73.1754 0.0831536 73.6296 0.243064 74.0197C0.409372 74.4099 0.64604 74.7425 0.953068 74.9984C1.54794 75.5101 2.36668 75.766 3.41569 75.766C3.63317 75.766 3.86344 75.7468 4.10011 75.7148C4.33678 75.6764 4.57984 75.6316 4.8357 75.5741L4.78453 74.5314Z" fill="white"/>
<path d="M5.11084 75.6632H6.40292L6.94662 74.2368H9.47321L10.0105 75.6632H11.3921L8.9487 69.4331H7.54148L5.11084 75.6632ZM9.1278 73.2518H7.30482L8.20671 70.6804H8.2259L9.1278 73.2518Z" fill="white"/>
<path d="M12.0894 75.6632H13.3367V73.2965H13.8612C14.2066 73.2965 14.5264 73.2582 14.8142 73.1878C15.1085 73.1174 15.3579 73.0023 15.5754 72.8424C15.7929 72.6825 15.9592 72.4778 16.0807 72.2219C16.2023 71.9661 16.2662 71.6655 16.2662 71.3137C16.2662 70.9555 16.1959 70.6548 16.0615 70.4054C15.9272 70.1559 15.7353 69.964 15.4923 69.8233C15.2492 69.6826 14.9805 69.5802 14.6735 69.5227C14.3665 69.4651 14.0339 69.4331 13.6693 69.4331H12.0894V75.6632ZM13.3367 70.4182H13.7716C14.1234 70.4182 14.4049 70.4949 14.6287 70.6484C14.8462 70.8019 14.9614 71.0514 14.9614 71.3904C14.9614 71.723 14.8526 71.9597 14.6351 72.1068C14.4177 72.2475 14.1298 72.3179 13.7716 72.3179H13.3367V70.4182Z" fill="white"/>
<path d="M18.2937 69.4331H17.0464V75.6632H18.2937V69.4331Z" fill="white"/>
<path d="M20.769 75.6632H22.0163V70.4182H23.8009V69.4331H18.9844V70.4182H20.769V75.6632Z" fill="white"/>
<path d="M23.2383 75.6632H24.5304L25.0741 74.2368H27.6006L28.1379 75.6632H29.5196L27.0761 69.4331H25.6689L23.2383 75.6632ZM27.2552 73.2518H25.4323L26.3342 70.6804H26.3533L27.2552 73.2518Z" fill="white"/>
<path d="M30.3257 75.6632H33.9908V74.6846H31.573V69.4331H30.3257V75.6632Z" fill="white"/>
<path d="M40.0032 72.3886C40.4062 72.1583 40.7069 71.9217 40.9115 71.685C41.1098 71.4483 41.2122 71.1349 41.2122 70.7383C41.2122 70.4953 41.161 70.2842 41.0587 70.1051C40.9563 69.926 40.822 69.7789 40.6557 69.6637C40.4894 69.5486 40.2975 69.4654 40.08 69.4079C39.8689 69.3567 39.645 69.3247 39.4212 69.3247C39.2037 69.3247 38.9798 69.3567 38.7495 69.4143C38.5257 69.4718 38.321 69.5614 38.1355 69.6893C37.95 69.8108 37.8029 69.9644 37.6941 70.1371C37.5854 70.3162 37.5278 70.5208 37.5278 70.7447C37.5278 71.0517 37.5918 71.3012 37.7133 71.4931C37.8413 71.685 38.0459 71.9153 38.3274 72.1903C38.3594 72.2159 38.3786 72.2351 38.3913 72.2415C37.918 72.4462 37.579 72.6828 37.3807 72.9579C37.1824 73.2329 37.0801 73.5655 37.0801 73.9557C37.0801 74.5186 37.2912 74.9664 37.7069 75.2862C38.1291 75.606 38.66 75.7659 39.2996 75.7659C39.6195 75.7659 39.9329 75.7083 40.2271 75.5996C40.5214 75.4845 40.7772 75.3246 40.9947 75.1071L41.4169 75.6572H42.952L41.839 74.4099C42.3315 73.8214 42.6002 73.1114 42.6322 72.2799H41.5448C41.532 72.5677 41.5 72.8236 41.4424 73.0538C41.3849 73.2841 41.2889 73.476 41.1546 73.6359L40.0032 72.3886ZM39.306 71.749L39.2165 71.6594C39.063 71.5059 38.9414 71.3652 38.8519 71.25C38.7623 71.1285 38.7176 71.0006 38.7176 70.8662C38.7176 70.6552 38.7879 70.4889 38.9286 70.3737C39.0694 70.2586 39.2357 70.2074 39.434 70.2074C39.6259 70.2074 39.7858 70.265 39.9201 70.3737C40.0544 70.4825 40.1184 70.6424 40.1184 70.8535C40.1184 71.0198 40.0224 71.1925 39.8305 71.378C39.7474 71.4547 39.6578 71.5251 39.5683 71.589C39.4787 71.653 39.3892 71.7042 39.306 71.749ZM40.4126 74.4674C40.2847 74.589 40.1248 74.6849 39.9329 74.7489C39.7474 74.8128 39.5427 74.8448 39.3188 74.8448C39.0246 74.8448 38.7687 74.7617 38.5704 74.589C38.3658 74.4163 38.2698 74.1988 38.2698 73.9301C38.2698 73.7063 38.3402 73.508 38.4745 73.3481C38.6088 73.1882 38.7943 73.0474 39.0246 72.9259L40.4126 74.4674Z" fill="white"/>
<path d="M47.3207 75.6632H48.568V70.4182H50.3526V69.4331H45.5361V70.4182H47.3207V75.6632Z" fill="white"/>
<path d="M51.0372 75.6631H52.2845V73.079H52.6874C52.9369 73.079 53.1224 73.1237 53.2375 73.2197C53.3527 73.3092 53.4614 73.4819 53.5574 73.725L54.3057 75.6695H55.7002L54.7023 73.2325C54.6256 73.0534 54.536 72.9063 54.4273 72.7847C54.3185 72.6632 54.1906 72.5992 54.0435 72.5865V72.5673C54.4337 72.5161 54.7471 72.3562 54.9774 72.0875C55.2076 71.8189 55.3228 71.4991 55.3228 71.1217C55.3228 70.7315 55.246 70.4181 55.0861 70.1878C54.9262 69.9575 54.7151 69.7848 54.4465 69.6825C54.1778 69.5737 53.89 69.5098 53.5701 69.4842C53.2567 69.4586 52.8601 69.4458 52.3804 69.4458H51.0308V75.6631H51.0372ZM52.2845 70.4181H52.6938C52.8857 70.4181 53.052 70.4245 53.1992 70.4436C53.3463 70.4628 53.4806 70.4948 53.6021 70.5524C53.7237 70.6036 53.826 70.6867 53.9028 70.7954C53.9795 70.9042 54.0115 71.0513 54.0115 71.2304C54.0115 71.4159 53.9731 71.563 53.9028 71.6782C53.826 71.7933 53.7301 71.8828 53.6021 71.9404C53.4742 71.998 53.3399 72.0428 53.1928 72.0619C53.0456 72.0811 52.8793 72.0939 52.7002 72.0939H52.2909V70.4181H52.2845Z" fill="white"/>
<path d="M56.5508 73.4117C56.5508 74.2176 56.7683 74.8125 57.2032 75.1963C57.6382 75.5801 58.2714 75.7656 59.0902 75.7656C59.9153 75.7656 60.5485 75.5737 60.9835 75.1963C61.4185 74.8125 61.6359 74.224 61.6359 73.4117V69.4331H60.3886V73.0279C60.3886 73.5844 60.2863 74.0193 60.088 74.3264C59.8833 74.6334 59.5571 74.7869 59.0966 74.7869C58.636 74.7869 58.3098 74.6334 58.1051 74.3264C57.9004 74.0193 57.8045 73.5844 57.8045 73.0279V69.4331H56.5572V73.4117H56.5508Z" fill="white"/>
<path d="M66.4972 69.5549C66.0494 69.4078 65.5569 69.3311 65.0068 69.3311C64.7126 69.3311 64.4439 69.3694 64.1881 69.4398C63.9322 69.5102 63.7019 69.6253 63.4973 69.7724C63.2926 69.9259 63.1327 70.1242 63.0111 70.3673C62.8896 70.6103 62.832 70.8982 62.832 71.2308C62.832 71.5122 62.8768 71.7489 62.9727 71.9472C63.0687 72.1455 63.1902 72.3118 63.3501 72.4461C63.5037 72.5804 63.67 72.6892 63.8427 72.7723C64.0154 72.8555 64.2265 72.945 64.4759 73.0474C64.8533 73.1881 65.1283 73.3224 65.301 73.4504C65.4738 73.5783 65.5633 73.751 65.5633 73.9877C65.5633 74.2435 65.4482 74.4418 65.2179 74.5825C64.9876 74.7232 64.7318 74.7936 64.4567 74.7936C64.2201 74.7936 63.977 74.7616 63.7403 74.6913C63.4973 74.6209 63.267 74.5314 63.0495 74.4098L62.9344 75.5356L63.0687 75.574C63.3885 75.6507 63.6444 75.7019 63.8299 75.7339C64.0154 75.7659 64.252 75.7787 64.5335 75.7787C64.8597 75.7787 65.1667 75.7403 65.4418 75.6699C65.7232 75.5996 65.9663 75.4908 66.1838 75.3373C66.3948 75.1902 66.5675 74.9919 66.6891 74.7488C66.8106 74.5058 66.8746 74.2179 66.8746 73.8917C66.8746 73.5975 66.8234 73.3544 66.7275 73.1497C66.6315 72.945 66.4972 72.7723 66.3373 72.638C66.1774 72.5037 66.0111 72.3885 65.832 72.3054C65.6593 72.2222 65.4354 72.1327 65.1731 72.0303C64.8149 71.896 64.5527 71.7681 64.3864 71.653C64.2201 71.5378 64.1369 71.3843 64.1369 71.1796C64.1369 71.0197 64.1689 70.879 64.2265 70.7703C64.284 70.6551 64.3608 70.5656 64.4567 70.5016C64.5527 70.4376 64.655 70.3865 64.7701 70.3609C64.8853 70.3289 65.0004 70.3161 65.1156 70.3161C65.5505 70.3161 65.9727 70.4057 66.382 70.5848L66.4972 69.5549Z" fill="white"/>
<path d="M69.1327 75.6632H70.3801V70.4182H72.1647V69.4331H67.3481V70.4182H69.1327V75.6632Z" fill="white"/>
<path d="M76.4181 69.5549C75.9703 69.4078 75.4778 69.3311 74.9277 69.3311C74.6335 69.3311 74.3648 69.3694 74.109 69.4398C73.8531 69.5102 73.6228 69.6253 73.4182 69.7724C73.2135 69.9259 73.0536 70.1242 72.932 70.3673C72.8105 70.6103 72.7529 70.8982 72.7529 71.2308C72.7529 71.5122 72.7977 71.7489 72.8937 71.9472C72.9896 72.1455 73.1111 72.3118 73.271 72.4461C73.4246 72.5804 73.5909 72.6892 73.7636 72.7723C73.9363 72.8555 74.1474 72.945 74.3968 73.0474C74.7742 73.1881 75.0492 73.3224 75.222 73.4504C75.3947 73.5783 75.4842 73.751 75.4842 73.9877C75.4842 74.2435 75.3691 74.4418 75.1388 74.5825C74.9085 74.7232 74.6527 74.7936 74.3776 74.7936C74.141 74.7936 73.8979 74.7616 73.6612 74.6913C73.4182 74.6209 73.1879 74.5314 72.9704 74.4098L72.8553 75.5356L72.9896 75.574C73.3094 75.6507 73.5653 75.7019 73.7508 75.7339C73.9363 75.7659 74.1729 75.7787 74.4544 75.7787C74.7806 75.7787 75.0876 75.7403 75.3627 75.6699C75.6441 75.5996 75.8872 75.4908 76.1047 75.3373C76.3157 75.1902 76.4884 74.9919 76.61 74.7488C76.7315 74.5058 76.7955 74.2179 76.7955 73.8917C76.7955 73.5975 76.7443 73.3544 76.6484 73.1497C76.5524 72.945 76.4181 72.7723 76.2582 72.638C76.0983 72.5037 75.932 72.3885 75.7529 72.3054C75.5802 72.2222 75.3563 72.1327 75.094 72.0303C74.7358 71.896 74.4736 71.7681 74.3073 71.653C74.141 71.5378 74.0578 71.3843 74.0578 71.1796C74.0578 71.0197 74.0898 70.879 74.1474 70.7703C74.2049 70.6551 74.2817 70.5656 74.3776 70.5016C74.4736 70.4376 74.5759 70.3865 74.691 70.3609C74.8062 70.3289 74.9213 70.3161 75.0365 70.3161C75.4714 70.3161 75.8936 70.4057 76.303 70.5848L76.4181 69.5549Z" fill="white"/>
<path d="M80.397 75.6632H84.0621V74.6846H81.6443V69.4331H80.397V75.6632Z" fill="white"/>
<path d="M86.0002 69.4331H84.7529V75.6632H86.0002V69.4331Z" fill="white"/>
<path d="M87.3369 75.6632H88.5331V70.5397L88.5522 70.5269L90.2281 75.6632H91.4242L93.1001 70.5269H93.1193V75.6632H94.3154V69.4331H92.3197L90.8358 74.1537H90.8166L89.339 69.4331H87.3369V75.6632Z" fill="white"/>
<path d="M96.8997 69.4331H95.6523V75.6632H96.8997V69.4331Z" fill="white"/>
<path d="M99.3749 75.6632H100.622V70.4182H102.407V69.4331H97.5903V70.4182H99.3749V75.6632Z" fill="white"/>
<path d="M103.2 75.6632H106.897V74.6846H104.447V72.9319H106.673V71.9533H104.447V70.4182H106.878V69.4331H103.2V75.6632Z" fill="white"/>
<path d="M109.411 70.4182H110.108C110.37 70.4182 110.626 70.4629 110.869 70.5589C111.119 70.6548 111.336 70.7955 111.528 70.981C111.72 71.1665 111.874 71.3904 111.989 71.6591C112.104 71.9277 112.155 72.2219 112.155 72.5482C112.155 72.8744 112.097 73.175 111.989 73.4373C111.874 73.7059 111.72 73.9298 111.528 74.1153C111.336 74.3008 111.112 74.4415 110.869 74.5375C110.62 74.6334 110.37 74.6782 110.108 74.6782H109.411V70.4182ZM108.164 75.6632H109.865C110.377 75.6632 110.844 75.6121 111.272 75.5161C111.694 75.4202 112.078 75.2539 112.404 75.0172C112.737 74.7805 112.993 74.4607 113.178 74.0513C113.364 73.642 113.46 73.143 113.46 72.5482C113.46 71.9533 113.364 71.4544 113.178 71.045C112.993 70.6356 112.731 70.3158 112.404 70.0791C112.072 69.8425 111.694 69.6762 111.272 69.5802C110.844 69.4843 110.377 69.4331 109.865 69.4331H108.164V75.6632Z" fill="white"/>
<path d="M37.1631 85.9039H38.2953V83.5628H38.6599C38.8837 83.5628 39.05 83.6075 39.1588 83.6907C39.2611 83.7738 39.3571 83.9274 39.4466 84.1448L40.1246 85.9039H41.3847L40.4828 83.6971C40.4125 83.5372 40.3293 83.4029 40.2334 83.2941C40.1374 83.1854 40.0223 83.1278 39.888 83.115V83.0958C40.2462 83.0447 40.5276 82.9039 40.7387 82.6609C40.9498 82.4178 41.0521 82.13 41.0521 81.791C41.0521 81.4328 40.9818 81.1513 40.841 80.9402C40.7003 80.7291 40.5084 80.5756 40.2654 80.4797C40.0223 80.3837 39.76 80.3198 39.4722 80.3006C39.1844 80.275 38.8262 80.2622 38.3976 80.2622H37.1631V85.9039ZM38.2953 81.1513H38.6662C38.839 81.1513 38.9925 81.1577 39.1204 81.1769C39.2547 81.1961 39.3763 81.2281 39.485 81.2728C39.6001 81.324 39.6897 81.3944 39.7536 81.4967C39.824 81.5991 39.856 81.727 39.856 81.8869C39.856 82.0532 39.824 82.1875 39.7536 82.2963C39.6833 82.3986 39.5937 82.4818 39.4786 82.5329C39.3635 82.5841 39.2419 82.6225 39.1076 82.6417C38.9733 82.6609 38.8262 82.6673 38.6599 82.6673H38.2889V81.1513H38.2953Z" fill="white"/>
<path d="M46.2527 84.8742C46.1184 84.9446 45.9329 85.0022 45.7027 85.0469C45.4724 85.0917 45.2421 85.1109 45.0182 85.1109C44.4298 85.1109 43.9628 84.9254 43.6238 84.548C43.2784 84.1706 43.1057 83.6909 43.1057 83.1024C43.1057 82.8146 43.1505 82.5395 43.24 82.2965C43.3296 82.047 43.4575 81.8295 43.6174 81.644C43.7837 81.4585 43.982 81.3114 44.2123 81.2091C44.449 81.1067 44.7048 81.0556 44.9926 81.0556C45.2165 81.0556 45.4276 81.0748 45.6195 81.1195C45.8114 81.1643 46.0097 81.2411 46.208 81.3562L46.2911 80.4031C46.0992 80.3264 45.8881 80.2688 45.6579 80.2304C45.4276 80.192 45.2165 80.1729 45.0182 80.1729C44.0524 80.1729 43.2976 80.4351 42.7475 80.9596C42.1974 81.4841 41.9224 82.2261 41.9224 83.1856C41.9224 83.6525 41.9991 84.0683 42.1462 84.4201C42.2934 84.7783 42.5108 85.0725 42.7859 85.3092C43.3232 85.7697 44.0652 86.0064 45.0118 86.0064C45.2101 86.0064 45.4148 85.9872 45.6323 85.9552C45.8434 85.9232 46.0672 85.8785 46.2975 85.8273L46.2527 84.8742Z" fill="white"/>
<path d="M52.8025 85.9041V85.015H50.4997L50.6724 84.8423C50.9667 84.5545 51.2225 84.305 51.4272 84.0875C51.6319 83.87 51.8302 83.6334 52.0157 83.3839C52.2012 83.1344 52.3483 82.8722 52.4571 82.6099C52.5722 82.3413 52.6234 82.079 52.6234 81.8168C52.6234 81.2795 52.4698 80.8701 52.1564 80.5887C51.843 80.3072 51.408 80.1665 50.8579 80.1665C50.5701 80.1665 50.2887 80.1985 50.0008 80.2688C49.713 80.3392 49.4443 80.4415 49.1821 80.5695L49.2716 81.5034C49.4827 81.369 49.6938 81.2603 49.9113 81.1771C50.1288 81.094 50.3462 81.0492 50.5701 81.0492C50.826 81.0492 51.037 81.1132 51.2225 81.2475C51.4016 81.3818 51.4912 81.5673 51.4912 81.8104C51.4912 82.0215 51.4208 82.2517 51.2737 82.514C51.1266 82.7698 50.9411 83.0321 50.7236 83.288C50.4997 83.5438 50.2887 83.7741 50.084 83.9788C49.8793 84.1835 49.6298 84.4137 49.342 84.6824C49.2141 84.8039 49.1181 84.8935 49.0605 84.951V85.8977H52.8025V85.9041Z" fill="white"/>
<path d="M55.4568 83.0897C55.7127 83.0897 55.8982 83.192 56.0325 83.3903C56.1604 83.595 56.2244 83.8445 56.2244 84.1451C56.2244 84.4265 56.1604 84.6632 56.0389 84.8615C55.9174 85.0598 55.7319 85.1557 55.4824 85.1557C55.2202 85.1557 55.0219 85.0598 54.8939 84.8743C54.766 84.6888 54.702 84.4457 54.702 84.1579C54.702 83.8445 54.766 83.5886 54.8875 83.3903C55.0091 83.192 55.201 83.0897 55.4568 83.0897ZM57.0687 80.3712C56.6849 80.2369 56.2884 80.1665 55.879 80.1665C55.444 80.1665 55.073 80.2561 54.7724 80.4352C54.4718 80.6143 54.2287 80.8573 54.056 81.1643C53.8769 81.4714 53.749 81.8104 53.6786 82.1878C53.6019 82.5652 53.5635 82.9553 53.5635 83.3711C53.5635 83.7293 53.5891 84.0683 53.6466 84.3754C53.7042 84.6824 53.8001 84.9574 53.9409 85.2005C54.0816 85.4436 54.2799 85.6418 54.5293 85.7826C54.7852 85.9233 55.0986 85.9937 55.476 85.9937C56.0965 85.9937 56.5634 85.8145 56.8768 85.45C57.1903 85.0918 57.3502 84.5928 57.3502 83.966C57.3502 83.4415 57.2094 83.0193 56.9216 82.7123C56.6338 82.4053 56.2308 82.2453 55.6999 82.2453C55.2329 82.2453 54.8683 82.4308 54.6125 82.8082L54.5933 82.789C54.6061 82.5652 54.6381 82.3477 54.6892 82.143C54.7404 81.9383 54.8172 81.7528 54.9259 81.5865C55.0283 81.4202 55.169 81.2859 55.3353 81.1899C55.508 81.094 55.7063 81.0428 55.9366 81.0428C56.1157 81.0428 56.282 81.062 56.4355 81.1004C56.589 81.1388 56.7553 81.1963 56.9216 81.2731L57.0687 80.3712Z" fill="white"/>
<path d="M59.116 84.3626C59.116 84.1387 59.18 83.9596 59.3079 83.8125C59.4358 83.6653 59.6085 83.5438 59.8388 83.4351C60.1202 83.5246 60.3441 83.6462 60.5232 83.7997C60.6959 83.9532 60.7855 84.1579 60.7855 84.4073C60.7855 84.6312 60.7087 84.8167 60.5552 84.951C60.4017 85.0854 60.2098 85.1557 59.9795 85.1557C59.7492 85.1557 59.5446 85.079 59.3783 84.9254C59.1992 84.7783 59.116 84.5864 59.116 84.3626ZM59.1608 81.6889C59.1608 81.4714 59.2439 81.3051 59.4102 81.1899C59.5765 81.0684 59.7684 81.0108 59.9859 81.0108C60.197 81.0108 60.3633 81.0748 60.4912 81.2027C60.6192 81.3307 60.6831 81.5034 60.6831 81.7208C60.6831 81.8871 60.6192 82.0535 60.4912 82.207C60.3633 82.3669 60.2162 82.4756 60.0499 82.5332C59.7876 82.4372 59.5893 82.3349 59.4614 82.2325C59.3719 82.1622 59.2951 82.0854 59.2439 81.9959C59.1928 81.9063 59.1608 81.804 59.1608 81.6889ZM59.0201 82.9809C58.6746 83.1472 58.4188 83.3455 58.2461 83.5694C58.0734 83.7933 57.9902 84.0619 57.9902 84.3754C57.9902 84.6568 58.0414 84.8999 58.1373 85.1045C58.2397 85.3092 58.3804 85.4755 58.5595 85.6163C58.745 85.7506 58.9561 85.8465 59.1928 85.9105C59.4294 85.9745 59.6917 86.0064 59.9731 86.0064C60.5616 86.0064 61.0285 85.8721 61.3803 85.5971C61.7321 85.3284 61.9112 84.9127 61.9112 84.3626C61.9112 83.7165 61.553 83.224 60.8302 82.885V82.8786C61.1245 82.7571 61.3548 82.5716 61.5211 82.3157C61.6874 82.0598 61.7641 81.7976 61.7641 81.5289C61.7641 81.3051 61.713 81.1004 61.617 80.9277C61.5147 80.755 61.3803 80.6079 61.2076 80.4991C61.0349 80.3904 60.8302 80.3072 60.6 80.2497C60.3697 80.1985 60.133 80.1665 59.8772 80.1665C59.3399 80.1665 58.9049 80.2944 58.5787 80.5439C58.2525 80.7997 58.0862 81.1643 58.0862 81.6505C58.0862 81.9383 58.1693 82.1942 58.3356 82.4244C58.5019 82.6547 58.7322 82.8338 59.0201 82.9617V82.9809Z" fill="white"/>
<path d="M66.2669 85.9041V85.015H63.9642L64.1305 84.8423C64.4247 84.5545 64.6806 84.305 64.8853 84.0875C65.09 83.87 65.2883 83.6334 65.4738 83.3839C65.6592 83.1344 65.8064 82.8722 65.9151 82.6099C66.0302 82.3413 66.0814 82.079 66.0814 81.8168C66.0814 81.2795 65.9279 80.8701 65.6145 80.5887C65.301 80.3072 64.8661 80.1665 64.316 80.1665C64.0282 80.1665 63.7467 80.1985 63.4589 80.2688C63.171 80.3392 62.9024 80.4415 62.6401 80.5695L62.7297 81.5034C62.9408 81.369 63.1518 81.2603 63.3693 81.1771C63.5868 81.094 63.8043 81.0492 64.0282 81.0492C64.284 81.0492 64.4951 81.1132 64.6806 81.2475C64.8597 81.3818 64.9492 81.5673 64.9492 81.8104C64.9492 82.0215 64.8789 82.2517 64.7318 82.514C64.5846 82.7698 64.3992 83.0321 64.1753 83.288C63.9514 83.5438 63.7403 83.7741 63.5356 83.9788C63.3309 84.1835 63.0815 84.4137 62.7936 84.6824C62.6657 84.8039 62.5698 84.8935 62.5122 84.951V85.8977H66.2669V85.9041Z" fill="white"/>
<path d="M67.0859 81.1513H69.5805L67.4889 85.9039H68.717L70.7191 81.2025V80.2622H67.0859V81.1513Z" fill="white"/>
<path d="M75.1258 80.2622H71.8893L71.8317 83.2877C72.1515 83.1854 72.4905 83.1342 72.8423 83.1342C73.0086 83.1342 73.1685 83.1534 73.3221 83.1854C73.4756 83.2174 73.6163 83.2749 73.7378 83.3517C73.8594 83.4284 73.9617 83.5308 74.0257 83.6587C74.096 83.7866 74.128 83.9338 74.128 84.1065C74.128 84.4391 74.0001 84.6949 73.7506 84.874C73.6419 84.9508 73.5203 85.0084 73.3732 85.0467C73.2325 85.0851 73.079 85.1043 72.9255 85.1043C72.7208 85.1043 72.5353 85.0787 72.3626 85.0339C72.1963 84.9828 72.0108 84.9188 71.8125 84.842L71.7741 84.8229L71.7485 85.8335C71.9468 85.8847 72.1643 85.923 72.401 85.9486C72.6376 85.9806 72.8615 85.9934 73.0662 85.9934C73.7634 85.9934 74.3071 85.8143 74.6909 85.4497C75.0747 85.0915 75.2666 84.631 75.2666 84.0745C75.2666 83.7291 75.2154 83.4348 75.1067 83.1918C74.9979 82.9487 74.8572 82.7568 74.6717 82.6161C74.4926 82.4754 74.2943 82.3794 74.0832 82.3219C73.8722 82.2643 73.6611 82.2387 73.4436 82.2387C73.2965 82.2387 73.1302 82.2579 72.9319 82.2963H72.9255L72.9511 81.0937H75.1258V80.2622Z" fill="white"/>
</g>
<defs>
<linearGradient id="paint0_linear_56_14361" x1="31.0808" y1="27.0437" x2="80.6244" y2="27.0437" gradientUnits="userSpaceOnUse">
<stop stop-color="#F48145"/>
<stop offset="1" stop-color="#FFD12A"/>
</linearGradient>
<clipPath id="clip0_56_14361">
<rect width="113.46" height="86" fill="white"/>
</clipPath>
</defs>
</svg>
